{
	"asset":{
		"generator":"Khronos glTF Blender I/O v4.5.49",
		"version":"2.0"
	},
	"scene":0,
	"scenes":[
		{
			"name":"Scene",
			"nodes":[
				0,
				1
			]
		}
	],
	"nodes":[
		{
			"mesh":0,
			"name":"Plane",
			"scale":[
				60,
				1,
				60
			]
		},
		{
			"mesh":1,
			"name":"Curve",
			"scale":[
				1143.56005859375,
				4228.4677734375,
				1143.56005859375
			],
			"translation":[
				3.814697265625e-06,
				8.901704788208008,
				0
			]
		}
	],
	"materials":[
		{
			"doubleSided":true,
			"name":"SVGMat",
			"pbrMetallicRoughness":{
				"baseColorFactor":[
					0,
					0.49786731600761414,
					0.16177573800086975,
					1
				],
				"metallicFactor":0,
				"roughnessFactor":0.4000000059604645
			}
		}
	],
	"meshes":[
		{
			"name":"Plane",
			"primitives":[
				{
					"attributes":{
						"POSITION":0,
						"NORMAL":1,
						"TEXCOORD_0":2
					},
					"indices":3
				}
			]
		},
		{
			"name":"Curve",
			"primitives":[
				{
					"attributes":{
						"POSITION":4,
						"NORMAL":5,
						"TEXCOORD_0":6
					},
					"indices":7,
					"material":0
				}
			]
		}
	],
	"accessors":[
		{
			"bufferView":0,
			"componentType":5126,
			"count":4,
			"max":[
				1,
				0,
				1
			],
			"min":[
				-1,
				0,
				-1
			],
			"type":"VEC3"
		},
		{
			"bufferView":1,
			"componentType":5126,
			"count":4,
			"type":"VEC3"
		},
		{
			"bufferView":2,
			"componentType":5126,
			"count":4,
			"type":"VEC2"
		},
		{
			"bufferView":3,
			"componentType":5123,
			"count":6,
			"type":"SCALAR"
		},
		{
			"bufferView":4,
			"componentType":5126,
			"count":7015,
			"max":[
				0.04189679026603699,
				0.00210518017411232,
				0.04347158968448639
			],
			"min":[
				-0.043852489441633224,
				-0.002105184830725193,
				-0.04263285920023918
			],
			"type":"VEC3"
		},
		{
			"bufferView":5,
			"componentType":5126,
			"count":7015,
			"type":"VEC3"
		},
		{
			"bufferView":6,
			"componentType":5126,
			"count":7015,
			"type":"VEC2"
		},
		{
			"bufferView":7,
			"componentType":5123,
			"count":15822,
			"type":"SCALAR"
		}
	],
	"bufferViews":[
		{
			"buffer":0,
			"byteLength":48,
			"byteOffset":0,
			"target":34962
		},
		{
			"buffer":0,
			"byteLength":48,
			"byteOffset":48,
			"target":34962
		},
		{
			"buffer":0,
			"byteLength":32,
			"byteOffset":96,
			"target":34962
		},
		{
			"buffer":0,
			"byteLength":12,
			"byteOffset":128,
			"target":34963
		},
		{
			"buffer":0,
			"byteLength":84180,
			"byteOffset":140,
			"target":34962
		},
		{
			"buffer":0,
			"byteLength":84180,
			"byteOffset":84320,
			"target":34962
		},
		{
			"buffer":0,
			"byteLength":56120,
			"byteOffset":168500,
			"target":34962
		},
		{
			"buffer":0,
			"byteLength":31644,
			"byteOffset":224620,
			"target":34963
		}
	],
	"buffers":[
		{
			"byteLength":256264,
			"uri":"modelo%203d%20laberinto.bin"
		}
	]
}
