{
	"asset":{
		"generator":"Khronos glTF Blender I/O v4.5.49",
		"version":"2.0"
	},
	"extensionsUsed":[
		"KHR_materials_clearcoat",
		"KHR_materials_specular",
		"KHR_materials_ior",
		"EXT_texture_webp",
		"KHR_texture_transform"
	],
	"extensionsRequired":[
		"EXT_texture_webp",
		"KHR_texture_transform"
	],
	"scene":0,
	"scenes":[
		{
			"name":"Scene",
			"nodes":[
				0,
				1,
				2,
				3,
				4,
				5,
				6,
				7,
				8,
				9
			]
		}
	],
	"nodes":[
		{
			"mesh":0,
			"name":"Plane.001",
			"scale":[
				1.8677947521209717,
				1,
				1.8677947521209717
			],
			"translation":[
				-3.2105884552001953,
				3.5891904830932617,
				-0.0497606098651886
			]
		},
		{
			"mesh":1,
			"name":"Plane",
			"scale":[
				60,
				1,
				60
			]
		},
		{
			"name":"Cube.007",
			"scale":[
				1.4310036897659302,
				2.5622901916503906,
				2
			],
			"translation":[
				7.0463175773620605,
				0,
				0
			]
		},
		{
			"mesh":2,
			"name":"Cube.003",
			"rotation":[
				0,
				0.7071068286895752,
				0,
				0.7071068286895752
			],
			"translation":[
				8.339784622192383,
				3.071812391281128,
				2.188897132873535
			]
		},
		{
			"mesh":3,
			"name":"Cube.006",
			"scale":[
				0.36014842987060547,
				0.36014842987060547,
				0.36014842987060547
			],
			"translation":[
				0.158768892288208,
				1.9245270490646362,
				-0.7315807342529297
			]
		},
		{
			"mesh":4,
			"name":"Cube",
			"scale":[
				0.7063456177711487,
				0.7063456177711487,
				0.7063456177711487
			],
			"translation":[
				-0.2555084228515625,
				3.2570955753326416,
				-10.750572204589844
			]
		},
		{
			"mesh":5,
			"name":"Cylinder",
			"scale":[
				0.287790983915329,
				0.287790983915329,
				0.287790983915329
			],
			"translation":[
				-0.2555084228515625,
				3.9466893672943115,
				-10.750572204589844
			]
		},
		{
			"mesh":6,
			"name":"Circle",
			"scale":[
				0.965710461139679,
				0.965710461139679,
				0.965710461139679
			],
			"translation":[
				0.464801549911499,
				3.6210126876831055,
				-3.962615966796875
			]
		},
		{
			"mesh":7,
			"name":"Liquid Domain",
			"scale":[
				1.4256199598312378,
				2.2158868312835693,
				1.346919298171997
			],
			"translation":[
				0.41128110885620117,
				3.9502511024475098,
				-3.9915008544921875
			]
		},
		{
			"mesh":8,
			"name":"Curve"
		}
	],
	"materials":[
		{
			"doubleSided":true,
			"name":"mantel",
			"pbrMetallicRoughness":{
				"metallicFactor":0
			}
		},
		{
			"doubleSided":true,
			"name":"suelo",
			"pbrMetallicRoughness":{
				"baseColorTexture":{
					"index":0
				},
				"metallicFactor":0
			}
		},
		{
			"doubleSided":true,
			"name":"Silla",
			"pbrMetallicRoughness":{
				"baseColorTexture":{
					"extensions":{
						"KHR_texture_transform":{
							"offset":[
								0.7000010013580316,
								0.9999999694019832
							],
							"rotation":1.5707963705062866,
							"scale":[
								5.100000381469727,
								-0.7000010013580322
							]
						}
					},
					"index":1
				},
				"metallicFactor":0
			}
		},
		{
			"doubleSided":true,
			"name":"Mesa",
			"pbrMetallicRoughness":{
				"baseColorTexture":{
					"extensions":{
						"KHR_texture_transform":{
							"offset":[
								0.7000010013580316,
								0.9999999694019832
							],
							"rotation":1.5707963705062866,
							"scale":[
								5.100000381469727,
								-0.7000010013580322
							]
						}
					},
					"index":2
				},
				"metallicFactor":0
			}
		},
		{
			"doubleSided":true,
			"name":"Cuenco",
			"pbrMetallicRoughness":{
				"baseColorTexture":{
					"extensions":{
						"KHR_texture_transform":{
							"offset":[
								0.7000010013580316,
								0.9999999694019832
							],
							"rotation":1.5707963705062866,
							"scale":[
								5.100000381469727,
								-0.7000010013580322
							]
						}
					},
					"index":3
				},
				"metallicFactor":0
			}
		},
		{
			"doubleSided":true,
			"name":"Material.002",
			"pbrMetallicRoughness":{
				"metallicFactor":0
			}
		},
		{
			"doubleSided":true,
			"name":"Material.003",
			"pbrMetallicRoughness":{
				"baseColorFactor":[
					0.11490701138973236,
					0.038724590092897415,
					0.025594210252165794,
					1
				],
				"metallicFactor":0,
				"roughnessFactor":0.5
			}
		},
		{
			"doubleSided":true,
			"name":"Material",
			"pbrMetallicRoughness":{
				"roughnessFactor":0.7226551175117493
			}
		},
		{
			"doubleSided":true,
			"extensions":{
				"KHR_materials_clearcoat":{
					"clearcoatFactor":0.20000000298023224,
					"clearcoatRoughnessFactor":0.30000001192092896
				},
				"KHR_materials_specular":{
					"specularFactor":0.6000000238418579
				},
				"KHR_materials_ior":{
					"ior":1.4500000476837158
				}
			},
			"name":"Glaseado",
			"pbrMetallicRoughness":{
				"metallicFactor":0,
				"roughnessFactor":0.5454545021057129
			}
		},
		{
			"doubleSided":true,
			"name":"Tarta",
			"pbrMetallicRoughness":{
				"metallicFactor":0,
				"roughnessFactor":0.5
			}
		},
		{
			"doubleSided":true,
			"name":"Laberinto",
			"pbrMetallicRoughness":{
				"baseColorTexture":{
					"extensions":{
						"KHR_texture_transform":{
							"offset":[
								0,
								-29.5
							],
							"scale":[
								30.5,
								30.5
							]
						}
					},
					"index":4
				},
				"metallicFactor":0
			}
		}
	],
	"meshes":[
		{
			"name":"Plane.002",
			"primitives":[
				{
					"attributes":{
						"POSITION":0,
						"NORMAL":1,
						"TEXCOORD_0":2
					},
					"indices":3,
					"material":0
				}
			]
		},
		{
			"name":"Plane",
			"primitives":[
				{
					"attributes":{
						"POSITION":4,
						"NORMAL":5,
						"TEXCOORD_0":6
					},
					"indices":3,
					"material":1
				}
			]
		},
		{
			"name":"Cube.034",
			"primitives":[
				{
					"attributes":{
						"POSITION":7,
						"NORMAL":8,
						"TEXCOORD_0":9
					},
					"indices":10,
					"material":2
				}
			]
		},
		{
			"name":"Cube.015",
			"primitives":[
				{
					"attributes":{
						"POSITION":11,
						"NORMAL":12,
						"TEXCOORD_0":13
					},
					"indices":14,
					"material":3
				}
			]
		},
		{
			"name":"Cube.017",
			"primitives":[
				{
					"attributes":{
						"POSITION":15,
						"NORMAL":16,
						"TEXCOORD_0":17
					},
					"indices":18,
					"material":4
				}
			]
		},
		{
			"name":"Cylinder",
			"primitives":[
				{
					"attributes":{
						"POSITION":19,
						"NORMAL":20,
						"TEXCOORD_0":21
					},
					"indices":22,
					"material":5
				},
				{
					"attributes":{
						"POSITION":23,
						"NORMAL":24,
						"TEXCOORD_0":25
					},
					"indices":26,
					"material":6
				}
			]
		},
		{
			"name":"Circle.001",
			"primitives":[
				{
					"attributes":{
						"POSITION":27,
						"NORMAL":28,
						"TEXCOORD_0":29
					},
					"indices":30,
					"material":7
				}
			]
		},
		{
			"name":"Cube.024",
			"primitives":[
				{
					"attributes":{
						"POSITION":31,
						"NORMAL":32,
						"TEXCOORD_0":33
					},
					"indices":34,
					"material":8
				},
				{
					"attributes":{
						"POSITION":35,
						"NORMAL":36,
						"TEXCOORD_0":37
					},
					"indices":38,
					"material":9
				}
			]
		},
		{
			"name":"Curve",
			"primitives":[
				{
					"attributes":{
						"POSITION":39,
						"NORMAL":40,
						"TEXCOORD_0":41
					},
					"indices":42,
					"material":10
				}
			]
		}
	],
	"textures":[
		{
			"extensions":{
				"EXT_texture_webp":{
					"source":0
				}
			},
			"sampler":0
		},
		{
			"sampler":0,
			"source":1
		},
		{
			"sampler":0,
			"source":1
		},
		{
			"sampler":0,
			"source":1
		},
		{
			"extensions":{
				"EXT_texture_webp":{
					"source":2
				}
			},
			"sampler":0
		}
	],
	"images":[
		{
			"mimeType":"image/webp",
			"name":"textura-de-tierra-33558888.webp",
			"uri":"../../../../../Downloads/textura-de-tierra-33558888.webp"
		},
		{
			"mimeType":"image/jpeg",
			"name":"arriere-plan-bois-texture-1456353976vDQ.jpg",
			"uri":"../../../../../Downloads/arriere-plan-bois-texture-1456353976vDQ.jpg"
		},
		{
			"mimeType":"image/webp",
			"name":"textura-verde-incons\u00fatil-del-seto-122069525.webp",
			"uri":"../../../../../Downloads/textura-verde-incons%C3%BAtil-del-seto-122069525.webp"
		}
	],
	"accessors":[
		{
			"bufferView":0,
			"componentType":5126,
			"count":4,
			"max":[
				1,
				0,
				1
			],
			"min":[
				-0.2382885217666626,
				0,
				-1
			],
			"type":"VEC3"
		},
		{
			"bufferView":1,
			"componentType":5126,
			"count":4,
			"type":"VEC3"
		},
		{
			"bufferView":2,
			"componentType":5126,
			"count":4,
			"type":"VEC2"
		},
		{
			"bufferView":3,
			"componentType":5123,
			"count":6,
			"type":"SCALAR"
		},
		{
			"bufferView":4,
			"componentType":5126,
			"count":4,
			"max":[
				1,
				0,
				1
			],
			"min":[
				-1,
				0,
				-1
			],
			"type":"VEC3"
		},
		{
			"bufferView":5,
			"componentType":5126,
			"count":4,
			"type":"VEC3"
		},
		{
			"bufferView":6,
			"componentType":5126,
			"count":4,
			"type":"VEC2"
		},
		{
			"bufferView":7,
			"componentType":5126,
			"count":704,
			"max":[
				1.1476610898971558,
				1.3870984315872192,
				0.32455968856811523
			],
			"min":[
				-1.1240988969802856,
				-3.071812391281128,
				-1.9472016096115112
			],
			"type":"VEC3"
		},
		{
			"bufferView":8,
			"componentType":5126,
			"count":704,
			"type":"VEC3"
		},
		{
			"bufferView":9,
			"componentType":5126,
			"count":704,
			"type":"VEC2"
		},
		{
			"bufferView":10,
			"componentType":5123,
			"count":1260,
			"type":"SCALAR"
		},
		{
			"bufferView":11,
			"componentType":5126,
			"count":192,
			"max":[
				11.907248497009277,
				4.491138458251953,
				38.85122299194336
			],
			"min":[
				-11.90725326538086,
				-5.343715667724609,
				-36.90864944458008
			],
			"type":"VEC3"
		},
		{
			"bufferView":12,
			"componentType":5126,
			"count":192,
			"type":"VEC3"
		},
		{
			"bufferView":13,
			"componentType":5126,
			"count":192,
			"type":"VEC2"
		},
		{
			"bufferView":14,
			"componentType":5123,
			"count":408,
			"type":"SCALAR"
		},
		{
			"bufferView":15,
			"componentType":5126,
			"count":1344,
			"max":[
				0.8114752769470215,
				0.963020384311676,
				0.8114752769470215
			],
			"min":[
				-0.8114752769470215,
				0.403354674577713,
				-0.8114752769470215
			],
			"type":"VEC3"
		},
		{
			"bufferView":16,
			"componentType":5126,
			"count":1344,
			"type":"VEC3"
		},
		{
			"bufferView":17,
			"componentType":5126,
			"count":1344,
			"type":"VEC2"
		},
		{
			"bufferView":18,
			"componentType":5123,
			"count":2016,
			"type":"SCALAR"
		},
		{
			"bufferView":19,
			"componentType":5126,
			"count":360,
			"max":[
				0.9846926331520081,
				3.0336098670959473,
				0.9846925139427185
			],
			"min":[
				-0.9846926331520081,
				-1,
				-0.9846926927566528
			],
			"type":"VEC3"
		},
		{
			"bufferView":20,
			"componentType":5126,
			"count":360,
			"type":"VEC3"
		},
		{
			"bufferView":21,
			"componentType":5126,
			"count":360,
			"type":"VEC2"
		},
		{
			"bufferView":22,
			"componentType":5123,
			"count":546,
			"type":"SCALAR"
		},
		{
			"bufferView":23,
			"componentType":5126,
			"count":40,
			"max":[
				0.056904107332229614,
				2.9469244480133057,
				0.05803799256682396
			],
			"min":[
				-0.05690111219882965,
				2.692434072494507,
				-0.07526694238185883
			],
			"type":"VEC3"
		},
		{
			"bufferView":24,
			"componentType":5126,
			"count":40,
			"type":"VEC3"
		},
		{
			"bufferView":25,
			"componentType":5126,
			"count":40,
			"type":"VEC2"
		},
		{
			"bufferView":26,
			"componentType":5123,
			"count":66,
			"type":"SCALAR"
		},
		{
			"bufferView":27,
			"componentType":5126,
			"count":100,
			"max":[
				0.9510565400123596,
				0,
				1
			],
			"min":[
				-0.9510565400123596,
				-0.08181507140398026,
				-1
			],
			"type":"VEC3"
		},
		{
			"bufferView":28,
			"componentType":5126,
			"count":100,
			"type":"VEC3"
		},
		{
			"bufferView":29,
			"componentType":5126,
			"count":100,
			"type":"VEC2"
		},
		{
			"bufferView":30,
			"componentType":5123,
			"count":588,
			"type":"SCALAR"
		},
		{
			"bufferView":31,
			"componentType":5126,
			"count":260,
			"max":[
				0.2605571746826172,
				0.018462777137756348,
				0.29037728905677795
			],
			"min":[
				-0.42848506569862366,
				-0.014989614486694336,
				-0.295555055141449
			],
			"type":"VEC3"
		},
		{
			"bufferView":32,
			"componentType":5126,
			"count":260,
			"type":"VEC3"
		},
		{
			"bufferView":33,
			"componentType":5126,
			"count":260,
			"type":"VEC2"
		},
		{
			"bufferView":34,
			"componentType":5123,
			"count":1548,
			"type":"SCALAR"
		},
		{
			"bufferView":35,
			"componentType":5126,
			"count":72,
			"max":[
				0.2382395714521408,
				-0.0004249066114425659,
				0.2589682936668396
			],
			"min":[
				-0.4038648009300232,
				-0.17135652899742126,
				-0.26163187623023987
			],
			"type":"VEC3"
		},
		{
			"bufferView":36,
			"componentType":5126,
			"count":72,
			"type":"VEC3"
		},
		{
			"bufferView":37,
			"componentType":5126,
			"count":72,
			"type":"VEC2"
		},
		{
			"bufferView":38,
			"componentType":5123,
			"count":132,
			"type":"SCALAR"
		},
		{
			"bufferView":39,
			"componentType":5126,
			"count":6985,
			"max":[
				47.9114990234375,
				17.803390502929688,
				49.712371826171875
			],
			"min":[
				-50.147953033447266,
				-9.5367431640625e-07,
				-48.75323486328125
			],
			"type":"VEC3"
		},
		{
			"bufferView":40,
			"componentType":5126,
			"count":6985,
			"type":"VEC3"
		},
		{
			"bufferView":41,
			"componentType":5126,
			"count":6985,
			"type":"VEC2"
		},
		{
			"bufferView":42,
			"componentType":5123,
			"count":15822,
			"type":"SCALAR"
		}
	],
	"bufferViews":[
		{
			"buffer":0,
			"byteLength":48,
			"byteOffset":0,
			"target":34962
		},
		{
			"buffer":0,
			"byteLength":48,
			"byteOffset":48,
			"target":34962
		},
		{
			"buffer":0,
			"byteLength":32,
			"byteOffset":96,
			"target":34962
		},
		{
			"buffer":0,
			"byteLength":12,
			"byteOffset":128,
			"target":34963
		},
		{
			"buffer":0,
			"byteLength":48,
			"byteOffset":140,
			"target":34962
		},
		{
			"buffer":0,
			"byteLength":48,
			"byteOffset":188,
			"target":34962
		},
		{
			"buffer":0,
			"byteLength":32,
			"byteOffset":236,
			"target":34962
		},
		{
			"buffer":0,
			"byteLength":8448,
			"byteOffset":268,
			"target":34962
		},
		{
			"buffer":0,
			"byteLength":8448,
			"byteOffset":8716,
			"target":34962
		},
		{
			"buffer":0,
			"byteLength":5632,
			"byteOffset":17164,
			"target":34962
		},
		{
			"buffer":0,
			"byteLength":2520,
			"byteOffset":22796,
			"target":34963
		},
		{
			"buffer":0,
			"byteLength":2304,
			"byteOffset":25316,
			"target":34962
		},
		{
			"buffer":0,
			"byteLength":2304,
			"byteOffset":27620,
			"target":34962
		},
		{
			"buffer":0,
			"byteLength":1536,
			"byteOffset":29924,
			"target":34962
		},
		{
			"buffer":0,
			"byteLength":816,
			"byteOffset":31460,
			"target":34963
		},
		{
			"buffer":0,
			"byteLength":16128,
			"byteOffset":32276,
			"target":34962
		},
		{
			"buffer":0,
			"byteLength":16128,
			"byteOffset":48404,
			"target":34962
		},
		{
			"buffer":0,
			"byteLength":10752,
			"byteOffset":64532,
			"target":34962
		},
		{
			"buffer":0,
			"byteLength":4032,
			"byteOffset":75284,
			"target":34963
		},
		{
			"buffer":0,
			"byteLength":4320,
			"byteOffset":79316,
			"target":34962
		},
		{
			"buffer":0,
			"byteLength":4320,
			"byteOffset":83636,
			"target":34962
		},
		{
			"buffer":0,
			"byteLength":2880,
			"byteOffset":87956,
			"target":34962
		},
		{
			"buffer":0,
			"byteLength":1092,
			"byteOffset":90836,
			"target":34963
		},
		{
			"buffer":0,
			"byteLength":480,
			"byteOffset":91928,
			"target":34962
		},
		{
			"buffer":0,
			"byteLength":480,
			"byteOffset":92408,
			"target":34962
		},
		{
			"buffer":0,
			"byteLength":320,
			"byteOffset":92888,
			"target":34962
		},
		{
			"buffer":0,
			"byteLength":132,
			"byteOffset":93208,
			"target":34963
		},
		{
			"buffer":0,
			"byteLength":1200,
			"byteOffset":93340,
			"target":34962
		},
		{
			"buffer":0,
			"byteLength":1200,
			"byteOffset":94540,
			"target":34962
		},
		{
			"buffer":0,
			"byteLength":800,
			"byteOffset":95740,
			"target":34962
		},
		{
			"buffer":0,
			"byteLength":1176,
			"byteOffset":96540,
			"target":34963
		},
		{
			"buffer":0,
			"byteLength":3120,
			"byteOffset":97716,
			"target":34962
		},
		{
			"buffer":0,
			"byteLength":3120,
			"byteOffset":100836,
			"target":34962
		},
		{
			"buffer":0,
			"byteLength":2080,
			"byteOffset":103956,
			"target":34962
		},
		{
			"buffer":0,
			"byteLength":3096,
			"byteOffset":106036,
			"target":34963
		},
		{
			"buffer":0,
			"byteLength":864,
			"byteOffset":109132,
			"target":34962
		},
		{
			"buffer":0,
			"byteLength":864,
			"byteOffset":109996,
			"target":34962
		},
		{
			"buffer":0,
			"byteLength":576,
			"byteOffset":110860,
			"target":34962
		},
		{
			"buffer":0,
			"byteLength":264,
			"byteOffset":111436,
			"target":34963
		},
		{
			"buffer":0,
			"byteLength":83820,
			"byteOffset":111700,
			"target":34962
		},
		{
			"buffer":0,
			"byteLength":83820,
			"byteOffset":195520,
			"target":34962
		},
		{
			"buffer":0,
			"byteLength":55880,
			"byteOffset":279340,
			"target":34962
		},
		{
			"buffer":0,
			"byteLength":31644,
			"byteOffset":335220,
			"target":34963
		}
	],
	"samplers":[
		{
			"magFilter":9729,
			"minFilter":9987
		}
	],
	"buffers":[
		{
			"byteLength":366864,
			"uri":"modelo%203d%20todo%20incluido%20prueba.bin"
		}
	]
}
